G04 Layer_Color=65535*
%FSLAX43Y43*%
%MOMM*%
G71*
G01*
G75*
%ADD11C,0.254*%
%ADD17C,0.200*%
%ADD18R,0.500X0.500*%
%ADD19R,0.500X0.500*%
D11*
X89366Y52704D02*
Y85597D01*
X89361Y85602D02*
X89366Y85597D01*
X89112Y85602D02*
X89361D01*
X89112Y52704D02*
Y85602D01*
X26162Y49911D02*
X93980D01*
Y124206D01*
X26162D02*
X93980D01*
X26162Y49911D02*
Y124206D01*
X58052Y86043D02*
X58560D01*
X58306D01*
Y87566D01*
X58052Y87312D01*
X70663Y123088D02*
X71171D01*
X70917D01*
Y121818D01*
X71171Y121564D01*
X71425D01*
X71679Y121818D01*
X70155Y123088D02*
X69140D01*
Y122834D01*
X70155Y121818D01*
Y121564D01*
X81178Y123037D02*
X80670D01*
X80924D01*
Y121768D01*
X80670Y121514D01*
X80416D01*
X80162Y121768D01*
X81686Y122783D02*
X81940Y123037D01*
X82448D01*
X82702Y122783D01*
Y122529D01*
X82448Y122275D01*
X82702Y122021D01*
Y121768D01*
X82448Y121514D01*
X81940D01*
X81686Y121768D01*
Y122021D01*
X81940Y122275D01*
X81686Y122529D01*
Y122783D01*
X81940Y122275D02*
X82448D01*
X91338Y123037D02*
X90830D01*
X91084D01*
Y121768D01*
X90830Y121514D01*
X90576D01*
X90322Y121768D01*
X91846D02*
X92100Y121514D01*
X92608D01*
X92862Y121768D01*
Y122783D01*
X92608Y123037D01*
X92100D01*
X91846Y122783D01*
Y122529D01*
X92100Y122275D01*
X92862D01*
X27838Y102717D02*
X27330D01*
X27584D01*
Y101448D01*
X27330Y101194D01*
X27076D01*
X26822Y101448D01*
X28346Y101194D02*
X28854D01*
X28600D01*
Y102717D01*
X28346Y102463D01*
X29615D02*
X29869Y102717D01*
X30377D01*
X30631Y102463D01*
Y101448D01*
X30377Y101194D01*
X29869D01*
X29615Y101448D01*
Y102463D01*
X27838Y87477D02*
X27330D01*
X27584D01*
Y86208D01*
X27330Y85954D01*
X27076D01*
X26822Y86208D01*
X28346Y85954D02*
X28854D01*
X28600D01*
Y87477D01*
X28346Y87223D01*
X29615Y85954D02*
X30123D01*
X29869D01*
Y87477D01*
X29615Y87223D01*
X27711Y71755D02*
X27203D01*
X27457D01*
Y70485D01*
X27203Y70231D01*
X26949D01*
X26695Y70485D01*
X28219Y70231D02*
X28727D01*
X28473D01*
Y71755D01*
X28219Y71501D01*
X30504Y70231D02*
X29489D01*
X30504Y71247D01*
Y71501D01*
X30250Y71755D01*
X29742D01*
X29489Y71501D01*
D17*
X68986Y120701D02*
X71526D01*
X68986Y95301D02*
Y120701D01*
X71526Y95301D02*
Y120701D01*
X68986Y95301D02*
X71526D01*
X80010Y120650D02*
X82550D01*
Y95250D02*
Y120650D01*
X80010Y95250D02*
Y120650D01*
Y95250D02*
X82550D01*
X90170Y120650D02*
X92710D01*
Y95250D02*
Y120650D01*
X90170Y95250D02*
Y120650D01*
Y95250D02*
X92710D01*
X52070Y97790D02*
Y100330D01*
X26670Y97790D02*
X52070D01*
X26670Y100330D02*
X52070D01*
X26670Y97790D02*
Y100330D01*
X52070Y82550D02*
Y85090D01*
X26670Y82550D02*
X52070D01*
X26670Y85090D02*
X52070D01*
X26670Y82550D02*
Y85090D01*
X51943Y66827D02*
Y69367D01*
X26543Y66827D02*
X51943D01*
X26543Y69367D02*
X51943D01*
X26543Y66827D02*
Y69367D01*
X90367Y85944D02*
X90867D01*
X90367D02*
Y86444D01*
X90867D01*
Y85944D02*
Y86444D01*
X63867Y87215D02*
Y87715D01*
X63367D02*
X63867D01*
X63367Y87215D02*
Y87715D01*
Y87215D02*
X63867D01*
X62234Y86995D02*
X62404D01*
Y51435D02*
Y86995D01*
X62234Y51435D02*
X62404D01*
X62234D02*
Y86995D01*
D18*
X90617Y86194D02*
D03*
D19*
X63617Y87465D02*
D03*
M02*
