M48
;Layer_Color=9474304
;FILE_FORMAT=4:3
METRIC,LZ
;TYPE=PLATED
T1F00S00C0.200
T2F00S00C0.900
T3F00S00C3.000
%
T01
X0087494Y0053339
Y0054609
Y0055879
Y0057149
Y0058419
Y0059689
Y0060959
Y0062229
Y0063499
Y0064769
Y0066039
Y0067309
Y0068579
Y0069849
Y0071119
Y0072389
Y0073659
Y0074929
Y0076199
Y0077469
Y0078739
X0091144
Y0077469
Y0076199
Y0074929
Y0073659
Y0072389
Y0071119
Y0069849
Y0068579
Y0067309
Y0066039
Y0064769
Y0063499
Y0062229
Y0060959
Y0059689
Y0058419
Y0057149
Y0055879
Y0054609
Y0053339
X0064144Y005334
Y005207
Y005461
Y005588
Y005715
Y005842
Y005969
Y006096
Y006223
Y00635
Y006477
Y006604
Y006731
Y006858
Y006985
Y007112
Y007239
Y007366
Y007493
Y007747
Y007874
X0060494
Y007747
Y00762
Y007493
Y007366
Y007239
Y006985
Y006858
Y006731
Y006604
Y006477
Y00635
Y006223
Y006096
Y005969
Y005842
Y005715
Y005588
Y005461
Y005334
Y005207
Y008001
Y008128
Y008255
Y008382
Y008509
Y008636
X0064144
Y008509
Y008382
Y008255
Y008128
Y008001
X0087494Y0080009
Y0081279
Y0082549
Y0083819
Y0085089
X0091144
Y0083819
Y0082549
Y0081279
Y0080009
T02
X0040513Y0068097
X0043053
X0045593
X0048133
X0050673
X0037973
X0035433
X0032893
X0030353
X0027813
X002794Y008382
X003048
X003302
X003556
X00381
Y009906
X003556
X003302
X003048
X002794
X004064
X004318
X004572
X004826
X00508
Y008382
X004826
X004572
X004318
X004064
X0070256Y0096571
Y0099111
Y0101651
Y0104191
Y0106731
Y0109271
Y0111811
Y0114351
Y0116891
X008128Y011684
Y01143
Y011176
Y010922
Y010668
Y010414
Y01016
Y009906
Y009652
X009144
Y009906
Y01016
Y010414
Y010668
Y010922
Y011176
Y01143
Y011684
Y011938
X008128
X0070256Y0119431
T03
X0080819Y0052715
Y0085715
M30
