M48
;Layer_Color=9474304
;FILE_FORMAT=4:3
METRIC,LZ
;TYPE=PLATED
T1F00S00C0.200
T2F00S00C0.900
T3F00S00C3.000
%
T01
X0061332Y-0070867
Y-0069597
Y-0068327
Y-0067057
Y-0065787
Y-0064517
Y-0063247
Y-0061977
Y-0060707
Y-0059437
Y-0058167
Y-0056897
Y-0055627
Y-0054357
Y-0053087
Y-0051817
Y-0050547
Y-0049277
Y-0048007
Y-0046737
Y-0045467
X0064982
Y-0046737
Y-0048007
Y-0049277
Y-0050547
Y-0051817
Y-0053087
Y-0054357
Y-0055627
Y-0056897
Y-0058167
Y-0059437
Y-0060707
Y-0061977
Y-0063247
Y-0064517
Y-0065787
Y-0067057
Y-0068327
Y-0069597
Y-0070867
X0037982Y-0070866
Y-0069596
Y-0068326
Y-0067056
Y-0065786
Y-0064516
Y-0063246
Y-0061976
Y-0060706
Y-0059436
Y-0058166
Y-0056896
Y-0055626
Y-0054356
Y-0053086
Y-0051816
Y-0050546
Y-0049276
Y-0048006
Y-0046736
Y-0045466
X0034332
Y-0046736
Y-0048006
Y-0049276
Y-0050546
Y-0051816
Y-0053086
Y-0054356
Y-0055626
Y-0056896
Y-0058166
Y-0059436
Y-0060706
Y-0061976
Y-0063246
Y-0064516
Y-0065786
Y-0067056
Y-0068326
Y-0069596
Y-0070866
Y-0072136
X0037982
Y-0044196
Y-0042926
Y-0041656
Y-0040386
Y-0039116
Y-0037846
X0034332
Y-0039116
Y-0040386
Y-0041656
Y-0042926
Y-0044196
X0061332Y-0044197
Y-0042927
Y-0041657
Y-0040387
Y-0039117
X0064982
Y-0040387
Y-0041657
Y-0042927
Y-0044197
T02
X0014351Y-0056109
X0016891
X0019431
X0021971
X0024511
X0011811
X0009271
X0006731
X0004191
X0001651
X0001778Y-0040386
X0004318
X0006858
X0009398
X0011938
Y-0025146
X0009398
X0006858
X0004318
X0001778
X0014478
X0017018
X0019558
X0022098
X0024638
Y-0040386
X0022098
X0019558
X0017018
X0014478
X0044094Y-0027635
Y-0025095
Y-0022555
Y-0020015
Y-0017475
Y-0014935
Y-0012395
Y-0009855
Y-0007315
X0055118Y-0007366
Y-0009906
Y-0012446
Y-0014986
Y-0017526
Y-0020066
Y-0022606
Y-0025146
Y-0027686
X0065278
Y-0025146
Y-0022606
Y-0020066
Y-0017526
Y-0014986
Y-0012446
Y-0009906
Y-0007366
Y-0004826
X0055118
X0044094Y-0004775
T03
X0054657Y-0071491
Y-0038491
M30
