G04 Layer_Color=65535*
%FSLAX43Y43*%
%MOMM*%
G71*
G01*
G75*
%ADD11C,0.254*%
%ADD17C,0.200*%
%ADD18R,0.500X0.500*%
%ADD19R,0.500X0.500*%
D11*
X0Y-74295D02*
Y0D01*
X67818D01*
Y-74295D02*
Y0D01*
X0Y-74295D02*
X67818D01*
X62950Y-71502D02*
Y-38604D01*
X63199D01*
X63204Y-38609D01*
Y-71502D02*
Y-38609D01*
X1549Y-52451D02*
X1041D01*
X1295D01*
Y-53721D01*
X1041Y-53975D01*
X787D01*
X533Y-53721D01*
X2057Y-53975D02*
X2565D01*
X2311D01*
Y-52451D01*
X2057Y-52705D01*
X4342Y-53975D02*
X3326D01*
X4342Y-52959D01*
Y-52705D01*
X4088Y-52451D01*
X3580D01*
X3326Y-52705D01*
X1676Y-36729D02*
X1168D01*
X1422D01*
Y-37998D01*
X1168Y-38252D01*
X914D01*
X660Y-37998D01*
X2184Y-38252D02*
X2692D01*
X2438D01*
Y-36729D01*
X2184Y-36983D01*
X3454Y-38252D02*
X3961D01*
X3707D01*
Y-36729D01*
X3454Y-36983D01*
X1676Y-21489D02*
X1168D01*
X1422D01*
Y-22758D01*
X1168Y-23012D01*
X914D01*
X660Y-22758D01*
X2184Y-23012D02*
X2692D01*
X2438D01*
Y-21489D01*
X2184Y-21743D01*
X3454D02*
X3707Y-21489D01*
X4215D01*
X4469Y-21743D01*
Y-22758D01*
X4215Y-23012D01*
X3707D01*
X3454Y-22758D01*
Y-21743D01*
X65176Y-1169D02*
X64668D01*
X64922D01*
Y-2438D01*
X64668Y-2692D01*
X64414D01*
X64160Y-2438D01*
X65684D02*
X65938Y-2692D01*
X66446D01*
X66700Y-2438D01*
Y-1423D01*
X66446Y-1169D01*
X65938D01*
X65684Y-1423D01*
Y-1677D01*
X65938Y-1931D01*
X66700D01*
X55016Y-1169D02*
X54508D01*
X54762D01*
Y-2438D01*
X54508Y-2692D01*
X54254D01*
X54000Y-2438D01*
X55524Y-1423D02*
X55778Y-1169D01*
X56286D01*
X56540Y-1423D01*
Y-1677D01*
X56286Y-1931D01*
X56540Y-2185D01*
Y-2438D01*
X56286Y-2692D01*
X55778D01*
X55524Y-2438D01*
Y-2185D01*
X55778Y-1931D01*
X55524Y-1677D01*
Y-1423D01*
X55778Y-1931D02*
X56286D01*
X44501Y-1118D02*
X45009D01*
X44755D01*
Y-2388D01*
X45009Y-2642D01*
X45263D01*
X45517Y-2388D01*
X43993Y-1118D02*
X42978D01*
Y-1372D01*
X43993Y-2388D01*
Y-2642D01*
X31890Y-38164D02*
X32398D01*
X32144D01*
Y-36640D01*
X31890Y-36894D01*
D17*
X53848Y-28956D02*
X56388D01*
X53848D02*
Y-3556D01*
X56388Y-28956D02*
Y-3556D01*
X53848D02*
X56388D01*
X64008Y-28956D02*
X66548D01*
X64008D02*
Y-3556D01*
X66548Y-28956D02*
Y-3556D01*
X64008D02*
X66548D01*
X508Y-26416D02*
Y-23876D01*
X25908D01*
X508Y-26416D02*
X25908D01*
Y-23876D01*
X508Y-41656D02*
Y-39116D01*
X25908D01*
X508Y-41656D02*
X25908D01*
Y-39116D01*
X381Y-57379D02*
Y-54839D01*
X25781D01*
X381Y-57379D02*
X25781D01*
Y-54839D01*
X36072Y-72771D02*
Y-37211D01*
Y-72771D02*
X36242D01*
Y-37211D01*
X36072D02*
X36242D01*
X37205Y-36991D02*
X37705D01*
X37205D02*
Y-36491D01*
X37705D01*
Y-36991D02*
Y-36491D01*
X64705Y-38262D02*
Y-37762D01*
X64205D02*
X64705D01*
X64205Y-38262D02*
Y-37762D01*
Y-38262D02*
X64705D01*
X42824Y-28905D02*
X45364D01*
Y-3505D01*
X42824Y-28905D02*
Y-3505D01*
X45364D01*
D18*
X37455Y-36741D02*
D03*
D19*
X64455Y-38012D02*
D03*
M02*
