G04 Layer_Color=128*
%FSLAX43Y43*%
%MOMM*%
G71*
G01*
G75*
%ADD10R,2.150X0.800*%
D10*
X61332Y-39117D02*
D03*
Y-40387D02*
D03*
Y-41657D02*
D03*
Y-42927D02*
D03*
Y-44197D02*
D03*
Y-45467D02*
D03*
Y-46737D02*
D03*
Y-48007D02*
D03*
Y-49277D02*
D03*
Y-50547D02*
D03*
Y-51817D02*
D03*
Y-53087D02*
D03*
Y-54357D02*
D03*
Y-55627D02*
D03*
Y-56897D02*
D03*
Y-58167D02*
D03*
Y-59437D02*
D03*
Y-60707D02*
D03*
Y-61977D02*
D03*
Y-63247D02*
D03*
Y-64517D02*
D03*
Y-65787D02*
D03*
Y-67057D02*
D03*
Y-68327D02*
D03*
Y-69597D02*
D03*
Y-70867D02*
D03*
X64982Y-39117D02*
D03*
Y-40387D02*
D03*
Y-41657D02*
D03*
Y-42927D02*
D03*
Y-44197D02*
D03*
Y-45467D02*
D03*
Y-46737D02*
D03*
Y-48007D02*
D03*
Y-49277D02*
D03*
Y-50547D02*
D03*
Y-51817D02*
D03*
Y-53087D02*
D03*
Y-54357D02*
D03*
Y-55627D02*
D03*
Y-56897D02*
D03*
Y-58167D02*
D03*
Y-59437D02*
D03*
Y-60707D02*
D03*
Y-61977D02*
D03*
Y-63247D02*
D03*
Y-64517D02*
D03*
Y-65787D02*
D03*
Y-67057D02*
D03*
Y-68327D02*
D03*
Y-69597D02*
D03*
Y-70867D02*
D03*
X37982Y-72136D02*
D03*
Y-70866D02*
D03*
Y-69596D02*
D03*
Y-68326D02*
D03*
Y-67056D02*
D03*
Y-65786D02*
D03*
Y-64516D02*
D03*
Y-63246D02*
D03*
Y-61976D02*
D03*
Y-60706D02*
D03*
Y-59436D02*
D03*
Y-58166D02*
D03*
Y-56896D02*
D03*
Y-55626D02*
D03*
Y-54356D02*
D03*
Y-53086D02*
D03*
Y-51816D02*
D03*
Y-50546D02*
D03*
Y-49276D02*
D03*
Y-48006D02*
D03*
Y-46736D02*
D03*
Y-45466D02*
D03*
Y-44196D02*
D03*
Y-42926D02*
D03*
Y-41656D02*
D03*
Y-40386D02*
D03*
Y-39116D02*
D03*
Y-37846D02*
D03*
X34332Y-72136D02*
D03*
Y-70866D02*
D03*
Y-69596D02*
D03*
Y-68326D02*
D03*
Y-67056D02*
D03*
Y-65786D02*
D03*
Y-64516D02*
D03*
Y-63246D02*
D03*
Y-61976D02*
D03*
Y-60706D02*
D03*
Y-59436D02*
D03*
Y-58166D02*
D03*
Y-56896D02*
D03*
Y-55626D02*
D03*
Y-54356D02*
D03*
Y-53086D02*
D03*
Y-51816D02*
D03*
Y-50546D02*
D03*
Y-49276D02*
D03*
Y-48006D02*
D03*
Y-46736D02*
D03*
Y-45466D02*
D03*
Y-44196D02*
D03*
Y-42926D02*
D03*
Y-41656D02*
D03*
Y-40386D02*
D03*
Y-39116D02*
D03*
Y-37846D02*
D03*
M02*
