G04 Layer_Physical_Order=1*
G04 Layer_Color=255*
%FSLAX43Y43*%
%MOMM*%
G71*
G01*
G75*
%ADD10R,2.150X0.800*%
%ADD11C,0.254*%
%ADD12C,1.500*%
%ADD13R,1.500X1.500*%
%ADD14R,1.500X1.500*%
%ADD15C,1.524*%
%ADD16C,0.500*%
D10*
X34332Y-37846D02*
D03*
Y-39116D02*
D03*
Y-40386D02*
D03*
Y-41656D02*
D03*
Y-42926D02*
D03*
Y-44196D02*
D03*
Y-45466D02*
D03*
Y-46736D02*
D03*
Y-48006D02*
D03*
Y-49276D02*
D03*
Y-50546D02*
D03*
Y-51816D02*
D03*
Y-53086D02*
D03*
Y-54356D02*
D03*
Y-55626D02*
D03*
Y-56896D02*
D03*
Y-58166D02*
D03*
Y-59436D02*
D03*
Y-60706D02*
D03*
Y-61976D02*
D03*
Y-63246D02*
D03*
Y-64516D02*
D03*
Y-65786D02*
D03*
Y-67056D02*
D03*
Y-68326D02*
D03*
Y-69596D02*
D03*
Y-70866D02*
D03*
Y-72136D02*
D03*
X37982Y-37846D02*
D03*
Y-39116D02*
D03*
Y-40386D02*
D03*
Y-41656D02*
D03*
Y-42926D02*
D03*
Y-44196D02*
D03*
Y-45466D02*
D03*
Y-46736D02*
D03*
Y-48006D02*
D03*
Y-49276D02*
D03*
Y-50546D02*
D03*
Y-51816D02*
D03*
Y-53086D02*
D03*
Y-54356D02*
D03*
Y-55626D02*
D03*
Y-56896D02*
D03*
Y-58166D02*
D03*
Y-59436D02*
D03*
Y-60706D02*
D03*
Y-61976D02*
D03*
Y-63246D02*
D03*
Y-64516D02*
D03*
Y-65786D02*
D03*
Y-67056D02*
D03*
Y-68326D02*
D03*
Y-69596D02*
D03*
Y-70866D02*
D03*
Y-72136D02*
D03*
X64982Y-70867D02*
D03*
Y-69597D02*
D03*
Y-68327D02*
D03*
Y-67057D02*
D03*
Y-65787D02*
D03*
Y-64517D02*
D03*
Y-63247D02*
D03*
Y-61977D02*
D03*
Y-60707D02*
D03*
Y-59437D02*
D03*
Y-58167D02*
D03*
Y-56897D02*
D03*
Y-55627D02*
D03*
Y-54357D02*
D03*
Y-53087D02*
D03*
Y-51817D02*
D03*
Y-50547D02*
D03*
Y-49277D02*
D03*
Y-48007D02*
D03*
Y-46737D02*
D03*
Y-45467D02*
D03*
Y-44197D02*
D03*
Y-42927D02*
D03*
Y-41657D02*
D03*
Y-40387D02*
D03*
Y-39117D02*
D03*
X61332Y-70867D02*
D03*
Y-69597D02*
D03*
Y-68327D02*
D03*
Y-67057D02*
D03*
Y-65787D02*
D03*
Y-64517D02*
D03*
Y-63247D02*
D03*
Y-61977D02*
D03*
Y-60707D02*
D03*
Y-59437D02*
D03*
Y-58167D02*
D03*
Y-56897D02*
D03*
Y-55627D02*
D03*
Y-54357D02*
D03*
Y-53087D02*
D03*
Y-51817D02*
D03*
Y-50547D02*
D03*
Y-49277D02*
D03*
Y-48007D02*
D03*
Y-46737D02*
D03*
Y-45467D02*
D03*
Y-44197D02*
D03*
Y-42927D02*
D03*
Y-41657D02*
D03*
Y-40387D02*
D03*
Y-39117D02*
D03*
D11*
X65278Y-18467D02*
Y-17526D01*
X58039Y-14605D02*
X65278Y-7366D01*
X58547Y-19177D02*
X65278Y-12446D01*
X59055Y-24690D02*
X65278Y-18467D01*
X59563Y-28321D02*
X65278Y-22606D01*
X57277Y-12827D02*
X65278Y-4826D01*
X57277Y-54610D02*
Y-12827D01*
X48641Y-63246D02*
X57277Y-54610D01*
X37982Y-63246D02*
X48641D01*
X51562Y-28702D02*
X55118Y-25146D01*
X51562Y-58166D02*
Y-28702D01*
X49022Y-60706D02*
X51562Y-58166D01*
X37982Y-60706D02*
X49022D01*
X50927Y-24257D02*
X55118Y-20066D01*
X50927Y-56769D02*
Y-24257D01*
X49530Y-58166D02*
X50927Y-56769D01*
X37982Y-58166D02*
X49530D01*
X50419Y-19685D02*
X55118Y-14986D01*
X50419Y-54991D02*
Y-19685D01*
X49784Y-55626D02*
X50419Y-54991D01*
X37982Y-55626D02*
X49784D01*
Y-15240D02*
X55118Y-9906D01*
X49784Y-51689D02*
Y-15240D01*
X48387Y-53086D02*
X49784Y-51689D01*
X37982Y-53086D02*
X48387D01*
X49149Y-10795D02*
X55118Y-4826D01*
X49149Y-49530D02*
Y-10795D01*
X48133Y-50546D02*
X49149Y-49530D01*
X37982Y-50546D02*
X48133D01*
X42545Y-21565D02*
X44094Y-20015D01*
X41910Y-17120D02*
X44094Y-14935D01*
X41910Y-40386D02*
Y-17120D01*
X41275Y-12675D02*
X44094Y-9855D01*
X41275Y-38481D02*
Y-12675D01*
X37982Y-10888D02*
X44094Y-4775D01*
X37982Y-37846D02*
Y-10888D01*
X24638Y-25146D02*
X29591D01*
X34332Y-29887D01*
Y-37846D02*
Y-29887D01*
X14478Y-25146D02*
X16383Y-27051D01*
X17736D01*
X32876Y-42191D01*
Y-42214D02*
Y-42191D01*
Y-42214D02*
X33588Y-42926D01*
X34332D01*
X33588Y-45466D02*
X34332D01*
X4318Y-25146D02*
X7366Y-28194D01*
X31623Y-47244D02*
X32385Y-48006D01*
X34332D01*
X24638Y-42545D02*
Y-40386D01*
Y-42545D02*
X32639Y-50546D01*
X34332D01*
X19558Y-40386D02*
X32258Y-53086D01*
X34332D01*
X32766Y-55626D02*
X34332D01*
X32258Y-58166D02*
X34332D01*
X32004Y-60706D02*
X34332D01*
X24511Y-56109D02*
X31648Y-63246D01*
X34332D01*
X19431Y-56109D02*
X29108Y-65786D01*
X34332D01*
X14351Y-56109D02*
X26568Y-68326D01*
X34332D01*
X9271Y-56109D02*
X24028Y-70866D01*
X34332D01*
X19558Y-25146D02*
X31242Y-36830D01*
Y-38608D02*
Y-36830D01*
Y-38608D02*
X33020Y-40386D01*
X34332D01*
X7366Y-28194D02*
X14605D01*
X31623Y-45212D01*
Y-47244D02*
Y-45212D01*
X9398Y-25146D02*
X11303Y-27051D01*
X15173D01*
X33588Y-45466D01*
X4318Y-40386D02*
X14224Y-50292D01*
X21590D01*
X32004Y-60706D01*
X9398Y-40386D02*
X16256Y-47244D01*
X21336D01*
X32258Y-58166D01*
X14478Y-40386D02*
X18669Y-44577D01*
X21717D01*
X32766Y-55626D01*
X37982Y-40386D02*
X39370D01*
X41275Y-38481D01*
X37982Y-42926D02*
X39370D01*
X41910Y-40386D01*
X42545Y-42418D02*
Y-21565D01*
X37982Y-45466D02*
X39497D01*
X42545Y-42418D01*
X37982Y-48006D02*
X39624D01*
X45974Y-41656D01*
Y-26975D01*
X44094Y-25095D02*
X45974Y-26975D01*
X37982Y-72136D02*
X49403D01*
X59563Y-61976D01*
Y-28321D01*
X37982Y-69596D02*
X48641D01*
X59055Y-59182D01*
Y-24690D01*
X37982Y-67056D02*
X48768D01*
X58547Y-57277D01*
Y-19177D01*
X37982Y-64516D02*
X49530D01*
X58039Y-56007D01*
Y-14605D01*
D12*
X55118Y-17526D02*
D03*
Y-7366D02*
D03*
Y-9906D02*
D03*
Y-12446D02*
D03*
Y-14986D02*
D03*
Y-20066D02*
D03*
Y-22606D02*
D03*
Y-25146D02*
D03*
Y-27686D02*
D03*
X65278Y-17526D02*
D03*
Y-7366D02*
D03*
Y-9906D02*
D03*
Y-12446D02*
D03*
Y-14986D02*
D03*
Y-20066D02*
D03*
Y-22606D02*
D03*
Y-25146D02*
D03*
Y-27686D02*
D03*
X11938Y-25146D02*
D03*
X22098D02*
D03*
X19558D02*
D03*
X17018D02*
D03*
X14478D02*
D03*
X9398D02*
D03*
X6858D02*
D03*
X4318D02*
D03*
X1778D02*
D03*
X11938Y-40386D02*
D03*
X22098D02*
D03*
X19558D02*
D03*
X17018D02*
D03*
X14478D02*
D03*
X9398D02*
D03*
X6858D02*
D03*
X4318D02*
D03*
X1778D02*
D03*
X11811Y-56109D02*
D03*
X21971D02*
D03*
X19431D02*
D03*
X16891D02*
D03*
X14351D02*
D03*
X9271D02*
D03*
X6731D02*
D03*
X4191D02*
D03*
X1651D02*
D03*
X44094Y-17475D02*
D03*
Y-7315D02*
D03*
Y-9855D02*
D03*
Y-12395D02*
D03*
Y-14935D02*
D03*
Y-20015D02*
D03*
Y-22555D02*
D03*
Y-25095D02*
D03*
Y-27635D02*
D03*
D13*
X55118Y-4826D02*
D03*
X65278D02*
D03*
X44094Y-4775D02*
D03*
D14*
X24638Y-25146D02*
D03*
Y-40386D02*
D03*
X24511Y-56109D02*
D03*
D15*
X54657Y-38491D02*
D03*
Y-71491D02*
D03*
D03*
Y-38491D02*
D03*
D16*
X34332Y-53086D02*
D03*
Y-37846D02*
D03*
X37982D02*
D03*
Y-39116D02*
D03*
X34332D02*
D03*
Y-40386D02*
D03*
X37982D02*
D03*
Y-41656D02*
D03*
X34332D02*
D03*
Y-42926D02*
D03*
X37982D02*
D03*
Y-44196D02*
D03*
X34332D02*
D03*
Y-45466D02*
D03*
X37982D02*
D03*
Y-46736D02*
D03*
X34332D02*
D03*
Y-48006D02*
D03*
Y-49276D02*
D03*
X37982D02*
D03*
Y-50546D02*
D03*
X34332D02*
D03*
Y-51816D02*
D03*
X37982D02*
D03*
Y-53086D02*
D03*
Y-54356D02*
D03*
X34332D02*
D03*
Y-55626D02*
D03*
X37982D02*
D03*
Y-56896D02*
D03*
X34332D02*
D03*
Y-58166D02*
D03*
X37982D02*
D03*
Y-59436D02*
D03*
X34332D02*
D03*
Y-60706D02*
D03*
X37982D02*
D03*
Y-61976D02*
D03*
X34332D02*
D03*
Y-63246D02*
D03*
X37982D02*
D03*
Y-64516D02*
D03*
X34332D02*
D03*
Y-65786D02*
D03*
X37982D02*
D03*
Y-67056D02*
D03*
X34332D02*
D03*
Y-68326D02*
D03*
X37982D02*
D03*
Y-69596D02*
D03*
X34332D02*
D03*
Y-70866D02*
D03*
X37982D02*
D03*
Y-72136D02*
D03*
X34332D02*
D03*
X61332Y-70867D02*
D03*
X64982D02*
D03*
Y-69597D02*
D03*
X61332D02*
D03*
Y-68327D02*
D03*
X64982D02*
D03*
Y-67057D02*
D03*
X61332D02*
D03*
Y-65787D02*
D03*
X64982D02*
D03*
Y-64517D02*
D03*
X61332D02*
D03*
Y-63247D02*
D03*
X64982D02*
D03*
Y-61977D02*
D03*
X61332D02*
D03*
Y-60707D02*
D03*
X64982D02*
D03*
Y-59437D02*
D03*
X61332D02*
D03*
Y-58167D02*
D03*
X64982D02*
D03*
Y-56897D02*
D03*
X61332D02*
D03*
Y-55627D02*
D03*
X64982D02*
D03*
Y-54357D02*
D03*
X61332D02*
D03*
Y-53087D02*
D03*
X64982D02*
D03*
Y-51817D02*
D03*
X61332D02*
D03*
Y-50547D02*
D03*
X64982D02*
D03*
Y-49277D02*
D03*
X61332D02*
D03*
Y-48007D02*
D03*
X64982D02*
D03*
Y-46737D02*
D03*
X61332D02*
D03*
Y-45467D02*
D03*
X64982D02*
D03*
Y-44197D02*
D03*
X61332D02*
D03*
Y-42927D02*
D03*
X64982D02*
D03*
Y-41657D02*
D03*
X61332D02*
D03*
Y-40387D02*
D03*
Y-39117D02*
D03*
X64982D02*
D03*
Y-40387D02*
D03*
X37982Y-48006D02*
D03*
M02*
