G04 Layer_Color=128*
%FSLAX43Y43*%
%MOMM*%
G71*
G01*
G75*
%ADD10R,2.150X0.800*%
D10*
X60494Y86360D02*
D03*
Y85090D02*
D03*
Y83820D02*
D03*
Y82550D02*
D03*
Y81280D02*
D03*
Y80010D02*
D03*
Y78740D02*
D03*
Y77470D02*
D03*
Y76200D02*
D03*
Y74930D02*
D03*
Y73660D02*
D03*
Y72390D02*
D03*
Y71120D02*
D03*
Y69850D02*
D03*
Y68580D02*
D03*
Y67310D02*
D03*
Y66040D02*
D03*
Y64770D02*
D03*
Y63500D02*
D03*
Y62230D02*
D03*
Y60960D02*
D03*
Y59690D02*
D03*
Y58420D02*
D03*
Y57150D02*
D03*
Y55880D02*
D03*
Y54610D02*
D03*
Y53340D02*
D03*
Y52070D02*
D03*
X64144Y86360D02*
D03*
Y85090D02*
D03*
Y83820D02*
D03*
Y82550D02*
D03*
Y81280D02*
D03*
Y80010D02*
D03*
Y78740D02*
D03*
Y77470D02*
D03*
Y76200D02*
D03*
Y74930D02*
D03*
Y73660D02*
D03*
Y72390D02*
D03*
Y71120D02*
D03*
Y69850D02*
D03*
Y68580D02*
D03*
Y67310D02*
D03*
Y66040D02*
D03*
Y64770D02*
D03*
Y63500D02*
D03*
Y62230D02*
D03*
Y60960D02*
D03*
Y59690D02*
D03*
Y58420D02*
D03*
Y57150D02*
D03*
Y55880D02*
D03*
Y54610D02*
D03*
Y53340D02*
D03*
Y52070D02*
D03*
X91144Y53339D02*
D03*
Y54609D02*
D03*
Y55879D02*
D03*
Y57149D02*
D03*
Y58419D02*
D03*
Y59689D02*
D03*
Y60959D02*
D03*
Y62229D02*
D03*
Y63499D02*
D03*
Y64769D02*
D03*
Y66039D02*
D03*
Y67309D02*
D03*
Y68579D02*
D03*
Y69849D02*
D03*
Y71119D02*
D03*
Y72389D02*
D03*
Y73659D02*
D03*
Y74929D02*
D03*
Y76199D02*
D03*
Y77469D02*
D03*
Y78739D02*
D03*
Y80009D02*
D03*
Y81279D02*
D03*
Y82549D02*
D03*
Y83819D02*
D03*
Y85089D02*
D03*
X87494Y53339D02*
D03*
Y54609D02*
D03*
Y55879D02*
D03*
Y57149D02*
D03*
Y58419D02*
D03*
Y59689D02*
D03*
Y60959D02*
D03*
Y62229D02*
D03*
Y63499D02*
D03*
Y64769D02*
D03*
Y66039D02*
D03*
Y67309D02*
D03*
Y68579D02*
D03*
Y69849D02*
D03*
Y71119D02*
D03*
Y72389D02*
D03*
Y73659D02*
D03*
Y74929D02*
D03*
Y76199D02*
D03*
Y77469D02*
D03*
Y78739D02*
D03*
Y80009D02*
D03*
Y81279D02*
D03*
Y82549D02*
D03*
Y83819D02*
D03*
Y85089D02*
D03*
M02*
