G04 Layer_Physical_Order=2*
G04 Layer_Color=16711680*
%FSLAX43Y43*%
%MOMM*%
G71*
G01*
G75*
%ADD10R,2.150X0.800*%
%ADD11C,0.254*%
%ADD12C,1.500*%
%ADD13R,1.500X1.500*%
%ADD14C,1.524*%
%ADD15R,1.500X1.500*%
%ADD16C,0.500*%
D10*
X60494Y86360D02*
D03*
Y85090D02*
D03*
Y83820D02*
D03*
Y82550D02*
D03*
Y81280D02*
D03*
Y80010D02*
D03*
Y78740D02*
D03*
Y77470D02*
D03*
Y76200D02*
D03*
Y74930D02*
D03*
Y73660D02*
D03*
Y72390D02*
D03*
Y71120D02*
D03*
Y69850D02*
D03*
Y68580D02*
D03*
Y67310D02*
D03*
Y66040D02*
D03*
Y64770D02*
D03*
Y63500D02*
D03*
Y62230D02*
D03*
Y60960D02*
D03*
Y59690D02*
D03*
Y58420D02*
D03*
Y57150D02*
D03*
Y55880D02*
D03*
Y54610D02*
D03*
Y53340D02*
D03*
Y52070D02*
D03*
X64144Y86360D02*
D03*
Y85090D02*
D03*
Y83820D02*
D03*
Y82550D02*
D03*
Y81280D02*
D03*
Y80010D02*
D03*
Y78740D02*
D03*
Y77470D02*
D03*
Y76200D02*
D03*
Y74930D02*
D03*
Y73660D02*
D03*
Y72390D02*
D03*
Y71120D02*
D03*
Y69850D02*
D03*
Y68580D02*
D03*
Y67310D02*
D03*
Y66040D02*
D03*
Y64770D02*
D03*
Y63500D02*
D03*
Y62230D02*
D03*
Y60960D02*
D03*
Y59690D02*
D03*
Y58420D02*
D03*
Y57150D02*
D03*
Y55880D02*
D03*
Y54610D02*
D03*
Y53340D02*
D03*
Y52070D02*
D03*
X91144Y53339D02*
D03*
Y54609D02*
D03*
Y55879D02*
D03*
Y57149D02*
D03*
Y58419D02*
D03*
Y59689D02*
D03*
Y60959D02*
D03*
Y62229D02*
D03*
Y63499D02*
D03*
Y64769D02*
D03*
Y66039D02*
D03*
Y67309D02*
D03*
Y68579D02*
D03*
Y69849D02*
D03*
Y71119D02*
D03*
Y72389D02*
D03*
Y73659D02*
D03*
Y74929D02*
D03*
Y76199D02*
D03*
Y77469D02*
D03*
Y78739D02*
D03*
Y80009D02*
D03*
Y81279D02*
D03*
Y82549D02*
D03*
Y83819D02*
D03*
Y85089D02*
D03*
X87494Y53339D02*
D03*
Y54609D02*
D03*
Y55879D02*
D03*
Y57149D02*
D03*
Y58419D02*
D03*
Y59689D02*
D03*
Y60959D02*
D03*
Y62229D02*
D03*
Y63499D02*
D03*
Y64769D02*
D03*
Y66039D02*
D03*
Y67309D02*
D03*
Y68579D02*
D03*
Y69849D02*
D03*
Y71119D02*
D03*
Y72389D02*
D03*
Y73659D02*
D03*
Y74929D02*
D03*
Y76199D02*
D03*
Y77469D02*
D03*
Y78739D02*
D03*
Y80009D02*
D03*
Y81279D02*
D03*
Y82549D02*
D03*
Y83819D02*
D03*
Y85089D02*
D03*
D11*
X68707Y96139D02*
X71374Y93472D01*
Y81661D02*
Y93472D01*
X67183Y77470D02*
X71374Y81661D01*
X64144Y77470D02*
X67183D01*
X68199Y82423D02*
Y103733D01*
X65786Y80010D02*
X68199Y82423D01*
X64144Y80010D02*
X65786D01*
X65659Y82550D02*
X67564Y84455D01*
X65659Y85090D02*
X66929Y86360D01*
Y113563D01*
X70256Y116891D01*
X64144Y82550D02*
X65659D01*
X64144Y85090D02*
X65659D01*
X59690Y82550D02*
X60494D01*
X43180Y99060D02*
X59690Y82550D01*
X58039Y86106D02*
Y89281D01*
Y86106D02*
X59055Y85090D01*
X60494D01*
X48260Y99060D02*
X58039Y89281D01*
X45381Y95123D02*
X58420Y82084D01*
X42037Y95123D02*
X45381D01*
X38100Y99060D02*
X42037Y95123D01*
X45593Y93218D02*
X57277Y81534D01*
X38862Y93218D02*
X45593D01*
X33020Y99060D02*
X38862Y93218D01*
X40894Y81026D02*
X44958D01*
Y82042D02*
X46863D01*
X36322Y80518D02*
X43180D01*
X58928Y64770D01*
X55499D02*
Y66040D01*
X42545Y78994D02*
X55499Y66040D01*
X32766Y78994D02*
X42545D01*
X57277D02*
Y81534D01*
X55753Y77470D02*
Y81534D01*
X46355Y90932D02*
X55753Y81534D01*
X36068Y90932D02*
X46355D01*
X77597Y92837D02*
X81280Y96520D01*
X77597Y64897D02*
Y92837D01*
X48920Y52070D02*
X60494D01*
X32893Y68097D02*
X48920Y52070D01*
X51460Y54610D02*
X60494D01*
X37973Y68097D02*
X51460Y54610D01*
X54000Y57150D02*
X60494D01*
X43053Y68097D02*
X54000Y57150D01*
X56540Y59690D02*
X60494D01*
X48133Y68097D02*
X56540Y59690D01*
X58039Y62230D02*
X60494D01*
X55499Y64770D02*
X58039Y62230D01*
X27940Y83820D02*
X32766Y78994D01*
X58928Y64770D02*
X60494D01*
X33020Y83820D02*
X36322Y80518D01*
X58674Y67310D02*
X60494D01*
X44958Y81026D02*
X58674Y67310D01*
X38100Y83820D02*
X40894Y81026D01*
X59055Y69850D02*
X60494D01*
X46863Y82042D02*
X59055Y69850D01*
X43180Y83820D02*
X44958Y82042D01*
X59690Y72390D02*
X60494D01*
X48260Y83820D02*
X59690Y72390D01*
X58293Y74930D02*
X60494D01*
X55753Y77470D02*
X58293Y74930D01*
X27940Y99060D02*
X36068Y90932D01*
X58420Y80772D02*
Y82084D01*
Y80772D02*
X59182Y80010D01*
X60494D01*
X58801Y77470D02*
X60494D01*
X57277Y78994D02*
X58801Y77470D01*
X67564Y84455D02*
Y109118D01*
X70256Y111811D01*
X68199Y103733D02*
X70256Y105790D01*
Y106731D01*
X68707Y96139D02*
Y100101D01*
X70256Y101651D01*
X64144Y74930D02*
X72136D01*
X74549Y77343D01*
Y94361D01*
X72339Y96571D02*
X74549Y94361D01*
X70256Y96571D02*
X72339D01*
X64144Y72390D02*
X73787D01*
X75311Y73914D01*
Y110871D01*
X81280Y116840D01*
X64144Y69850D02*
X74803D01*
X75819Y70866D01*
Y106299D01*
X81280Y111760D01*
X64144Y67310D02*
X75692D01*
X76327Y67945D01*
Y101727D01*
X81280Y106680D01*
X64144Y64770D02*
X74803D01*
X77089Y67056D01*
Y97409D01*
X81280Y101600D01*
X74930Y62230D02*
X77597Y64897D01*
X64144Y62230D02*
X74930D01*
X83566Y68707D02*
Y106426D01*
X73279Y58420D02*
X83566Y68707D01*
X64144Y58420D02*
X73279D01*
X85217Y69088D02*
Y102997D01*
X72009Y55880D02*
X85217Y69088D01*
X64144Y55880D02*
X72009D01*
X70714Y53340D02*
X85852Y68478D01*
X64144Y53340D02*
X70714D01*
X85852Y68478D02*
Y98552D01*
X83566Y106426D02*
X91440Y114300D01*
X85217Y102997D02*
X91440Y109220D01*
X85852Y98552D02*
X91440Y104140D01*
D12*
X70256Y96571D02*
D03*
Y99111D02*
D03*
Y101651D02*
D03*
Y104191D02*
D03*
Y109271D02*
D03*
Y111811D02*
D03*
Y114351D02*
D03*
Y116891D02*
D03*
Y106731D02*
D03*
X27813Y68097D02*
D03*
X30353D02*
D03*
X32893D02*
D03*
X35433D02*
D03*
X40513D02*
D03*
X43053D02*
D03*
X45593D02*
D03*
X48133D02*
D03*
X37973D02*
D03*
X27940Y83820D02*
D03*
X30480D02*
D03*
X33020D02*
D03*
X35560D02*
D03*
X40640D02*
D03*
X43180D02*
D03*
X45720D02*
D03*
X48260D02*
D03*
X38100D02*
D03*
X27940Y99060D02*
D03*
X30480D02*
D03*
X33020D02*
D03*
X35560D02*
D03*
X40640D02*
D03*
X43180D02*
D03*
X45720D02*
D03*
X48260D02*
D03*
X38100D02*
D03*
X91440Y96520D02*
D03*
Y99060D02*
D03*
Y101600D02*
D03*
Y104140D02*
D03*
Y109220D02*
D03*
Y111760D02*
D03*
Y114300D02*
D03*
Y116840D02*
D03*
Y106680D02*
D03*
X81280Y96520D02*
D03*
Y99060D02*
D03*
Y101600D02*
D03*
Y104140D02*
D03*
Y109220D02*
D03*
Y111760D02*
D03*
Y114300D02*
D03*
Y116840D02*
D03*
Y106680D02*
D03*
D13*
X70256Y119431D02*
D03*
X91440Y119380D02*
D03*
X81280D02*
D03*
D14*
X80819Y85715D02*
D03*
Y52715D02*
D03*
D03*
Y85715D02*
D03*
D15*
X50673Y68097D02*
D03*
X50800Y83820D02*
D03*
Y99060D02*
D03*
D16*
X64144Y76200D02*
D03*
X91144Y83819D02*
D03*
Y85089D02*
D03*
X87494D02*
D03*
Y83819D02*
D03*
Y82549D02*
D03*
X91144D02*
D03*
Y81279D02*
D03*
X87494D02*
D03*
Y80009D02*
D03*
X91144D02*
D03*
Y78739D02*
D03*
X87494D02*
D03*
Y77469D02*
D03*
X91144D02*
D03*
Y76199D02*
D03*
X87494D02*
D03*
Y74929D02*
D03*
X91144D02*
D03*
Y73659D02*
D03*
X87494D02*
D03*
Y72389D02*
D03*
X91144D02*
D03*
Y71119D02*
D03*
X87494D02*
D03*
Y69849D02*
D03*
X91144D02*
D03*
Y68579D02*
D03*
X87494D02*
D03*
Y67309D02*
D03*
X91144D02*
D03*
Y66039D02*
D03*
X87494D02*
D03*
Y64769D02*
D03*
X91144D02*
D03*
Y63499D02*
D03*
X87494D02*
D03*
Y62229D02*
D03*
X91144D02*
D03*
Y60959D02*
D03*
X87494D02*
D03*
Y59689D02*
D03*
X91144D02*
D03*
Y58419D02*
D03*
X87494D02*
D03*
Y57149D02*
D03*
X91144D02*
D03*
Y55879D02*
D03*
X87494D02*
D03*
Y54609D02*
D03*
X91144D02*
D03*
Y53339D02*
D03*
X87494D02*
D03*
X60494Y52070D02*
D03*
X64144D02*
D03*
Y53340D02*
D03*
X60494D02*
D03*
Y54610D02*
D03*
X64144D02*
D03*
Y55880D02*
D03*
X60494D02*
D03*
Y57150D02*
D03*
X64144D02*
D03*
Y58420D02*
D03*
X60494D02*
D03*
Y59690D02*
D03*
X64144D02*
D03*
Y60960D02*
D03*
X60494D02*
D03*
Y62230D02*
D03*
X64144D02*
D03*
Y63500D02*
D03*
X60494D02*
D03*
Y64770D02*
D03*
X64144D02*
D03*
Y66040D02*
D03*
X60494D02*
D03*
Y67310D02*
D03*
X64144D02*
D03*
Y68580D02*
D03*
X60494D02*
D03*
Y69850D02*
D03*
X64144D02*
D03*
Y71120D02*
D03*
Y72390D02*
D03*
X60494D02*
D03*
Y73660D02*
D03*
X64144D02*
D03*
Y74930D02*
D03*
X60494D02*
D03*
Y76200D02*
D03*
Y77470D02*
D03*
X64144D02*
D03*
Y78740D02*
D03*
X60494D02*
D03*
Y80010D02*
D03*
X64144D02*
D03*
Y81280D02*
D03*
X60494D02*
D03*
Y82550D02*
D03*
X64144D02*
D03*
Y83820D02*
D03*
X60494D02*
D03*
Y85090D02*
D03*
X64144D02*
D03*
Y86360D02*
D03*
X60494D02*
D03*
M02*
