G04 Layer_Color=16711935*
%FSLAX43Y43*%
%MOMM*%
G71*
G01*
G75*
%ADD20R,2.353X1.003*%
%ADD21C,1.703*%
%ADD22R,1.703X1.703*%
%ADD23C,1.727*%
%ADD24R,1.703X1.703*%
%ADD25C,0.703*%
D20*
X60494Y86360D02*
D03*
Y85090D02*
D03*
Y83820D02*
D03*
Y82550D02*
D03*
Y81280D02*
D03*
Y80010D02*
D03*
Y78740D02*
D03*
Y77470D02*
D03*
Y76200D02*
D03*
Y74930D02*
D03*
Y73660D02*
D03*
Y72390D02*
D03*
Y71120D02*
D03*
Y69850D02*
D03*
Y68580D02*
D03*
Y67310D02*
D03*
Y66040D02*
D03*
Y64770D02*
D03*
Y63500D02*
D03*
Y62230D02*
D03*
Y60960D02*
D03*
Y59690D02*
D03*
Y58420D02*
D03*
Y57150D02*
D03*
Y55880D02*
D03*
Y54610D02*
D03*
Y53340D02*
D03*
Y52070D02*
D03*
X64144Y86360D02*
D03*
Y85090D02*
D03*
Y83820D02*
D03*
Y82550D02*
D03*
Y81280D02*
D03*
Y80010D02*
D03*
Y78740D02*
D03*
Y77470D02*
D03*
Y76200D02*
D03*
Y74930D02*
D03*
Y73660D02*
D03*
Y72390D02*
D03*
Y71120D02*
D03*
Y69850D02*
D03*
Y68580D02*
D03*
Y67310D02*
D03*
Y66040D02*
D03*
Y64770D02*
D03*
Y63500D02*
D03*
Y62230D02*
D03*
Y60960D02*
D03*
Y59690D02*
D03*
Y58420D02*
D03*
Y57150D02*
D03*
Y55880D02*
D03*
Y54610D02*
D03*
Y53340D02*
D03*
Y52070D02*
D03*
X91144Y53339D02*
D03*
Y54609D02*
D03*
Y55879D02*
D03*
Y57149D02*
D03*
Y58419D02*
D03*
Y59689D02*
D03*
Y60959D02*
D03*
Y62229D02*
D03*
Y63499D02*
D03*
Y64769D02*
D03*
Y66039D02*
D03*
Y67309D02*
D03*
Y68579D02*
D03*
Y69849D02*
D03*
Y71119D02*
D03*
Y72389D02*
D03*
Y73659D02*
D03*
Y74929D02*
D03*
Y76199D02*
D03*
Y77469D02*
D03*
Y78739D02*
D03*
Y80009D02*
D03*
Y81279D02*
D03*
Y82549D02*
D03*
Y83819D02*
D03*
Y85089D02*
D03*
X87494Y53339D02*
D03*
Y54609D02*
D03*
Y55879D02*
D03*
Y57149D02*
D03*
Y58419D02*
D03*
Y59689D02*
D03*
Y60959D02*
D03*
Y62229D02*
D03*
Y63499D02*
D03*
Y64769D02*
D03*
Y66039D02*
D03*
Y67309D02*
D03*
Y68579D02*
D03*
Y69849D02*
D03*
Y71119D02*
D03*
Y72389D02*
D03*
Y73659D02*
D03*
Y74929D02*
D03*
Y76199D02*
D03*
Y77469D02*
D03*
Y78739D02*
D03*
Y80009D02*
D03*
Y81279D02*
D03*
Y82549D02*
D03*
Y83819D02*
D03*
Y85089D02*
D03*
D21*
X70256Y96571D02*
D03*
Y99111D02*
D03*
Y101651D02*
D03*
Y104191D02*
D03*
Y109271D02*
D03*
Y111811D02*
D03*
Y114351D02*
D03*
Y116891D02*
D03*
Y106731D02*
D03*
X27813Y68097D02*
D03*
X30353D02*
D03*
X32893D02*
D03*
X35433D02*
D03*
X40513D02*
D03*
X43053D02*
D03*
X45593D02*
D03*
X48133D02*
D03*
X37973D02*
D03*
X27940Y83820D02*
D03*
X30480D02*
D03*
X33020D02*
D03*
X35560D02*
D03*
X40640D02*
D03*
X43180D02*
D03*
X45720D02*
D03*
X48260D02*
D03*
X38100D02*
D03*
X27940Y99060D02*
D03*
X30480D02*
D03*
X33020D02*
D03*
X35560D02*
D03*
X40640D02*
D03*
X43180D02*
D03*
X45720D02*
D03*
X48260D02*
D03*
X38100D02*
D03*
X91440Y96520D02*
D03*
Y99060D02*
D03*
Y101600D02*
D03*
Y104140D02*
D03*
Y109220D02*
D03*
Y111760D02*
D03*
Y114300D02*
D03*
Y116840D02*
D03*
Y106680D02*
D03*
X81280Y96520D02*
D03*
Y99060D02*
D03*
Y101600D02*
D03*
Y104140D02*
D03*
Y109220D02*
D03*
Y111760D02*
D03*
Y114300D02*
D03*
Y116840D02*
D03*
Y106680D02*
D03*
D22*
X70256Y119431D02*
D03*
X91440Y119380D02*
D03*
X81280D02*
D03*
D23*
X80819Y85715D02*
D03*
Y52715D02*
D03*
D03*
Y85715D02*
D03*
D24*
X50673Y68097D02*
D03*
X50800Y83820D02*
D03*
Y99060D02*
D03*
D25*
X64144Y76200D02*
D03*
X91144Y83819D02*
D03*
Y85089D02*
D03*
X87494D02*
D03*
Y83819D02*
D03*
Y82549D02*
D03*
X91144D02*
D03*
Y81279D02*
D03*
X87494D02*
D03*
Y80009D02*
D03*
X91144D02*
D03*
Y78739D02*
D03*
X87494D02*
D03*
Y77469D02*
D03*
X91144D02*
D03*
Y76199D02*
D03*
X87494D02*
D03*
Y74929D02*
D03*
X91144D02*
D03*
Y73659D02*
D03*
X87494D02*
D03*
Y72389D02*
D03*
X91144D02*
D03*
Y71119D02*
D03*
X87494D02*
D03*
Y69849D02*
D03*
X91144D02*
D03*
Y68579D02*
D03*
X87494D02*
D03*
Y67309D02*
D03*
X91144D02*
D03*
Y66039D02*
D03*
X87494D02*
D03*
Y64769D02*
D03*
X91144D02*
D03*
Y63499D02*
D03*
X87494D02*
D03*
Y62229D02*
D03*
X91144D02*
D03*
Y60959D02*
D03*
X87494D02*
D03*
Y59689D02*
D03*
X91144D02*
D03*
Y58419D02*
D03*
X87494D02*
D03*
Y57149D02*
D03*
X91144D02*
D03*
Y55879D02*
D03*
X87494D02*
D03*
Y54609D02*
D03*
X91144D02*
D03*
Y53339D02*
D03*
X87494D02*
D03*
X60494Y52070D02*
D03*
X64144D02*
D03*
Y53340D02*
D03*
X60494D02*
D03*
Y54610D02*
D03*
X64144D02*
D03*
Y55880D02*
D03*
X60494D02*
D03*
Y57150D02*
D03*
X64144D02*
D03*
Y58420D02*
D03*
X60494D02*
D03*
Y59690D02*
D03*
X64144D02*
D03*
Y60960D02*
D03*
X60494D02*
D03*
Y62230D02*
D03*
X64144D02*
D03*
Y63500D02*
D03*
X60494D02*
D03*
Y64770D02*
D03*
X64144D02*
D03*
Y66040D02*
D03*
X60494D02*
D03*
Y67310D02*
D03*
X64144D02*
D03*
Y68580D02*
D03*
X60494D02*
D03*
Y69850D02*
D03*
X64144D02*
D03*
Y71120D02*
D03*
Y72390D02*
D03*
X60494D02*
D03*
Y73660D02*
D03*
X64144D02*
D03*
Y74930D02*
D03*
X60494D02*
D03*
Y76200D02*
D03*
Y77470D02*
D03*
X64144D02*
D03*
Y78740D02*
D03*
X60494D02*
D03*
Y80010D02*
D03*
X64144D02*
D03*
Y81280D02*
D03*
X60494D02*
D03*
Y82550D02*
D03*
X64144D02*
D03*
Y83820D02*
D03*
X60494D02*
D03*
Y85090D02*
D03*
X64144D02*
D03*
Y86360D02*
D03*
X60494D02*
D03*
M02*
