G04 Layer_Physical_Order=1*
G04 Layer_Color=255*
%FSLAX43Y43*%
%MOMM*%
G71*
G01*
G75*
%ADD10R,2.150X0.800*%
%ADD11C,0.254*%
%ADD12C,1.500*%
%ADD13R,1.500X1.500*%
%ADD14C,1.524*%
%ADD15R,1.500X1.500*%
%ADD16C,0.500*%
D10*
X87494Y85089D02*
D03*
Y83819D02*
D03*
Y82549D02*
D03*
Y81279D02*
D03*
Y80009D02*
D03*
Y78739D02*
D03*
Y77469D02*
D03*
Y76199D02*
D03*
Y74929D02*
D03*
Y73659D02*
D03*
Y72389D02*
D03*
Y71119D02*
D03*
Y69849D02*
D03*
Y68579D02*
D03*
Y67309D02*
D03*
Y66039D02*
D03*
Y64769D02*
D03*
Y63499D02*
D03*
Y62229D02*
D03*
Y60959D02*
D03*
Y59689D02*
D03*
Y58419D02*
D03*
Y57149D02*
D03*
Y55879D02*
D03*
Y54609D02*
D03*
Y53339D02*
D03*
X91144Y85089D02*
D03*
Y83819D02*
D03*
Y82549D02*
D03*
Y81279D02*
D03*
Y80009D02*
D03*
Y78739D02*
D03*
Y77469D02*
D03*
Y76199D02*
D03*
Y74929D02*
D03*
Y73659D02*
D03*
Y72389D02*
D03*
Y71119D02*
D03*
Y69849D02*
D03*
Y68579D02*
D03*
Y67309D02*
D03*
Y66039D02*
D03*
Y64769D02*
D03*
Y63499D02*
D03*
Y62229D02*
D03*
Y60959D02*
D03*
Y59689D02*
D03*
Y58419D02*
D03*
Y57149D02*
D03*
Y55879D02*
D03*
Y54609D02*
D03*
Y53339D02*
D03*
X64144Y52070D02*
D03*
Y53340D02*
D03*
Y54610D02*
D03*
Y55880D02*
D03*
Y57150D02*
D03*
Y58420D02*
D03*
Y59690D02*
D03*
Y60960D02*
D03*
Y62230D02*
D03*
Y63500D02*
D03*
Y64770D02*
D03*
Y66040D02*
D03*
Y67310D02*
D03*
Y68580D02*
D03*
Y69850D02*
D03*
Y71120D02*
D03*
Y72390D02*
D03*
Y73660D02*
D03*
Y74930D02*
D03*
Y76200D02*
D03*
Y77470D02*
D03*
Y78740D02*
D03*
Y80010D02*
D03*
Y81280D02*
D03*
Y82550D02*
D03*
Y83820D02*
D03*
Y85090D02*
D03*
Y86360D02*
D03*
X60494Y52070D02*
D03*
Y53340D02*
D03*
Y54610D02*
D03*
Y55880D02*
D03*
Y57150D02*
D03*
Y58420D02*
D03*
Y59690D02*
D03*
Y60960D02*
D03*
Y62230D02*
D03*
Y63500D02*
D03*
Y64770D02*
D03*
Y66040D02*
D03*
Y67310D02*
D03*
Y68580D02*
D03*
Y69850D02*
D03*
Y71120D02*
D03*
Y72390D02*
D03*
Y73660D02*
D03*
Y74930D02*
D03*
Y76200D02*
D03*
Y77470D02*
D03*
Y78740D02*
D03*
Y80010D02*
D03*
Y81280D02*
D03*
Y82550D02*
D03*
Y83820D02*
D03*
Y85090D02*
D03*
Y86360D02*
D03*
D11*
X84201Y68199D02*
Y109601D01*
X75692Y59690D02*
X84201Y68199D01*
X64144Y59690D02*
X75692D01*
X84709Y66929D02*
Y105029D01*
X74930Y57150D02*
X84709Y66929D01*
X64144Y57150D02*
X74930D01*
X85217Y65024D02*
Y99516D01*
X74803Y54610D02*
X85217Y65024D01*
X64144Y54610D02*
X74803D01*
X85725Y62230D02*
Y95885D01*
X75565Y52070D02*
X85725Y62230D01*
X64144Y52070D02*
X75565D01*
X70256Y99111D02*
X72136Y97231D01*
Y82550D02*
Y97231D01*
X65786Y76200D02*
X72136Y82550D01*
X64144Y76200D02*
X65786D01*
X65659Y78740D02*
X68707Y81788D01*
X64144Y78740D02*
X65659D01*
X68707Y81788D02*
Y102641D01*
X65532Y81280D02*
X68072Y83820D01*
X64144Y81280D02*
X65532D01*
Y83820D02*
X67437Y85725D01*
X64144Y83820D02*
X65532D01*
X47879Y79629D02*
X58928Y68580D01*
X44831Y79629D02*
X47879D01*
X40640Y83820D02*
X44831Y79629D01*
X47498Y76962D02*
X58420Y66040D01*
X42418Y76962D02*
X47498D01*
X35560Y83820D02*
X42418Y76962D01*
X47752Y73914D02*
X58166Y63500D01*
X40386Y73914D02*
X47752D01*
X30480Y83820D02*
X40386Y73914D01*
X41335Y97155D02*
X59750Y78740D01*
X37465Y97155D02*
X41335D01*
X35560Y99060D02*
X37465Y97155D01*
X57785Y76962D02*
Y78994D01*
X40767Y96012D02*
X57785Y78994D01*
X33528Y96012D02*
X40767D01*
X59182Y83820D02*
X60494D01*
X57404Y85598D02*
X59182Y83820D01*
X57404Y85598D02*
Y87376D01*
X45720Y99060D02*
X57404Y87376D01*
X50190Y53340D02*
X60494D01*
X35433Y68097D02*
X50190Y53340D01*
X52730Y55880D02*
X60494D01*
X40513Y68097D02*
X52730Y55880D01*
X55270Y58420D02*
X60494D01*
X45593Y68097D02*
X55270Y58420D01*
X57810Y60960D02*
X60494D01*
X50673Y68097D02*
X57810Y60960D01*
X58166Y63500D02*
X60494D01*
X58420Y66040D02*
X60494D01*
X58928Y68580D02*
X60494D01*
X58420Y71120D02*
X60494D01*
X45720Y83820D02*
X58420Y71120D01*
X58801Y73660D02*
X60494D01*
X50800Y81661D02*
X58801Y73660D01*
X50800Y81661D02*
Y83820D01*
X58547Y76200D02*
X60494D01*
X57785Y76962D02*
X58547Y76200D01*
X30480Y99060D02*
X33528Y96012D01*
X59750Y78740D02*
X60494D01*
X59750Y81280D02*
X60494D01*
X59038Y81992D02*
X59750Y81280D01*
X59038Y81992D02*
Y82015D01*
X43898Y97155D02*
X59038Y82015D01*
X42545Y97155D02*
X43898D01*
X40640Y99060D02*
X42545Y97155D01*
X60494Y86360D02*
Y94319D01*
X55753Y99060D02*
X60494Y94319D01*
X50800Y99060D02*
X55753D01*
X64144Y86360D02*
Y113318D01*
X70256Y119431D01*
X67437Y85725D02*
Y111531D01*
X70256Y114351D01*
X68072Y83820D02*
Y107086D01*
X70256Y109271D01*
X68707Y102641D02*
X70256Y104191D01*
X64144Y73660D02*
X74295D01*
X75311Y74676D01*
Y113411D01*
X81280Y119380D01*
X64144Y71120D02*
X74549D01*
X75946Y72517D01*
Y108966D01*
X81280Y114300D01*
X64144Y68580D02*
X75946D01*
X76581Y69215D01*
Y104521D01*
X81280Y109220D01*
X64144Y66040D02*
X75692D01*
X77089Y67437D01*
Y99949D01*
X81280Y104140D01*
X64144Y63500D02*
X75184D01*
X77724Y66040D01*
Y95504D01*
X81280Y99060D01*
X64144Y60960D02*
X74803D01*
X83439Y69596D01*
Y111379D01*
X91440Y119380D01*
X85725Y95885D02*
X91440Y101600D01*
X85217Y99516D02*
X91440Y105739D01*
X84709Y105029D02*
X91440Y111760D01*
X84201Y109601D02*
X91440Y116840D01*
Y105739D02*
Y106680D01*
D12*
X70256Y96571D02*
D03*
Y99111D02*
D03*
Y101651D02*
D03*
Y104191D02*
D03*
Y109271D02*
D03*
Y111811D02*
D03*
Y114351D02*
D03*
Y116891D02*
D03*
Y106731D02*
D03*
X27813Y68097D02*
D03*
X30353D02*
D03*
X32893D02*
D03*
X35433D02*
D03*
X40513D02*
D03*
X43053D02*
D03*
X45593D02*
D03*
X48133D02*
D03*
X37973D02*
D03*
X27940Y83820D02*
D03*
X30480D02*
D03*
X33020D02*
D03*
X35560D02*
D03*
X40640D02*
D03*
X43180D02*
D03*
X45720D02*
D03*
X48260D02*
D03*
X38100D02*
D03*
X27940Y99060D02*
D03*
X30480D02*
D03*
X33020D02*
D03*
X35560D02*
D03*
X40640D02*
D03*
X43180D02*
D03*
X45720D02*
D03*
X48260D02*
D03*
X38100D02*
D03*
X91440Y96520D02*
D03*
Y99060D02*
D03*
Y101600D02*
D03*
Y104140D02*
D03*
Y109220D02*
D03*
Y111760D02*
D03*
Y114300D02*
D03*
Y116840D02*
D03*
Y106680D02*
D03*
X81280Y96520D02*
D03*
Y99060D02*
D03*
Y101600D02*
D03*
Y104140D02*
D03*
Y109220D02*
D03*
Y111760D02*
D03*
Y114300D02*
D03*
Y116840D02*
D03*
Y106680D02*
D03*
D13*
X70256Y119431D02*
D03*
X91440Y119380D02*
D03*
X81280D02*
D03*
D14*
X80819Y85715D02*
D03*
Y52715D02*
D03*
D03*
Y85715D02*
D03*
D15*
X50673Y68097D02*
D03*
X50800Y83820D02*
D03*
Y99060D02*
D03*
D16*
X64144Y76200D02*
D03*
X91144Y83819D02*
D03*
Y85089D02*
D03*
X87494D02*
D03*
Y83819D02*
D03*
Y82549D02*
D03*
X91144D02*
D03*
Y81279D02*
D03*
X87494D02*
D03*
Y80009D02*
D03*
X91144D02*
D03*
Y78739D02*
D03*
X87494D02*
D03*
Y77469D02*
D03*
X91144D02*
D03*
Y76199D02*
D03*
X87494D02*
D03*
Y74929D02*
D03*
X91144D02*
D03*
Y73659D02*
D03*
X87494D02*
D03*
Y72389D02*
D03*
X91144D02*
D03*
Y71119D02*
D03*
X87494D02*
D03*
Y69849D02*
D03*
X91144D02*
D03*
Y68579D02*
D03*
X87494D02*
D03*
Y67309D02*
D03*
X91144D02*
D03*
Y66039D02*
D03*
X87494D02*
D03*
Y64769D02*
D03*
X91144D02*
D03*
Y63499D02*
D03*
X87494D02*
D03*
Y62229D02*
D03*
X91144D02*
D03*
Y60959D02*
D03*
X87494D02*
D03*
Y59689D02*
D03*
X91144D02*
D03*
Y58419D02*
D03*
X87494D02*
D03*
Y57149D02*
D03*
X91144D02*
D03*
Y55879D02*
D03*
X87494D02*
D03*
Y54609D02*
D03*
X91144D02*
D03*
Y53339D02*
D03*
X87494D02*
D03*
X60494Y52070D02*
D03*
X64144D02*
D03*
Y53340D02*
D03*
X60494D02*
D03*
Y54610D02*
D03*
X64144D02*
D03*
Y55880D02*
D03*
X60494D02*
D03*
Y57150D02*
D03*
X64144D02*
D03*
Y58420D02*
D03*
X60494D02*
D03*
Y59690D02*
D03*
X64144D02*
D03*
Y60960D02*
D03*
X60494D02*
D03*
Y62230D02*
D03*
X64144D02*
D03*
Y63500D02*
D03*
X60494D02*
D03*
Y64770D02*
D03*
X64144D02*
D03*
Y66040D02*
D03*
X60494D02*
D03*
Y67310D02*
D03*
X64144D02*
D03*
Y68580D02*
D03*
X60494D02*
D03*
Y69850D02*
D03*
X64144D02*
D03*
Y71120D02*
D03*
Y72390D02*
D03*
X60494D02*
D03*
Y73660D02*
D03*
X64144D02*
D03*
Y74930D02*
D03*
X60494D02*
D03*
Y76200D02*
D03*
Y77470D02*
D03*
X64144D02*
D03*
Y78740D02*
D03*
X60494D02*
D03*
Y80010D02*
D03*
X64144D02*
D03*
Y81280D02*
D03*
X60494D02*
D03*
Y82550D02*
D03*
X64144D02*
D03*
Y83820D02*
D03*
X60494D02*
D03*
Y85090D02*
D03*
X64144D02*
D03*
Y86360D02*
D03*
X60494D02*
D03*
M02*
